<svg width="40" height="40" viewBox="0 0 100 100" xmlns="http://www.w3.org/2000/svg">
  <defs>
    <linearGradient id="blueGrad" x1="0%" y1="0%" x2="100%" y2="100%">
      <stop offset="0%" style="stop-color:#4A90E2;stop-opacity:1" />
      <stop offset="100%" style="stop-color:#2E5BBA;stop-opacity:1" />
    </linearGradient>
    <linearGradient id="orangeGrad" x1="0%" y1="0%" x2="100%" y2="100%">
      <stop offset="0%" style="stop-color:#FF8C42;stop-opacity:1" />
      <stop offset="100%" style="stop-color:#D2691E;stop-opacity:1" />
    </linearGradient>
  </defs>
  
  <!-- Shield Outline -->
  <path d="M50 10 C70 10, 85 20, 85 35 C85 55, 70 75, 50 90 C30 75, 15 55, 15 35 C15 20, 30 10, 50 10 Z" 
        fill="url(#blueGrad)" 
        stroke="#1E3A8A" 
        stroke-width="2"/>
  
  <!-- Orange Section -->
  <path d="M50 15 C65 15, 75 22, 75 32 C75 48, 65 65, 50 80 L50 15 Z" 
        fill="url(#orangeGrad)"/>
  
  <!-- Lightning Bolt -->
  <path d="M45 25 L55 25 L50 40 L60 40 L45 70 L50 50 L40 50 L45 25 Z" 
        fill="white" 
        stroke="#E5E7EB" 
        stroke-width="1"/>
  
  <!-- Inner Shield Shadow -->
  <path d="M50 15 C65 15, 75 22, 75 32 C75 48, 65 65, 50 80 C35 65, 25 48, 25 32 C25 22, 35 15, 50 15 Z" 
        fill="none" 
        stroke="rgba(0,0,0,0.2)" 
        stroke-width="1"/>
</svg> 